<?xml version="1.0" encoding="utf-8"?>
<!-- Generator: Adobe Illustrator 25.0.0, SVG Export Plug-In . SVG Version: 6.00 Build 0)  -->
<svg version="1.1" id="Ebene_1" xmlns="http://www.w3.org/2000/svg" xmlns:xlink="http://www.w3.org/1999/xlink" x="0px" y="0px"
	 viewBox="0 0 464.5 136.6" style="enable-background:new 0 0 464.5 136.6;" xml:space="preserve">
<style type="text/css">
	.st0{fill:none;stroke:#FFFFFF;stroke-width:3;stroke-miterlimit:10;}
	.st1{fill:#F39218;}
	.st2{fill:#020203;}
	.st3{fill:#FFFFFF;}
</style>
<rect x="56.7" y="29.3" width="407.8" height="78.1"/>
<rect x="44.2" y="16.8" class="st0" width="407.8" height="78.1"/>
<g id="layer1" transform="translate(-36.285713,-124.94062)">
	<path id="path1397" class="st1" d="M104.6,131.3c-34.2,0-62,27.8-62,62c0,0,0,0,0,0c0,34.2,27.8,62,62,62c34.2,0,62-27.8,62-62
		c0-2.2-0.1-4.3-0.4-6.5l-0.3,0.1l-4.2-4.8l-2.5,0.7l1.4,5.5l-4.5,1.2l-4.6-17.7l7.9-2.1c0.8-0.2,1.6-0.3,2.3-0.3
		C152.1,146.3,129.6,131.3,104.6,131.3z M149.2,172.3l4.6,17.7l-4.5,1.2l-1.8-7.1l-6.9,1.8l1.8,7.1l-4.5,1.2l-4.6-17.7l4.5-1.2
		l1.8,6.8l6.9-1.8l-1.8-6.8L149.2,172.3z M160.9,173.4c-0.4,0-0.8,0.1-1.2,0.2l-2.7,0.7l1.2,4.6l2.7-0.7c0.9-0.2,1.5-0.6,1.9-1
		c0.4-0.5,0.5-1.1,0.3-2c-0.2-0.9-0.6-1.4-1.2-1.6C161.6,173.5,161.3,173.4,160.9,173.4L160.9,173.4z M124.6,178.6
		c0.9,0,1.7,0.1,2.5,0.3c1.7,0.4,3.1,1.2,4.3,2.4s2,2.7,2.5,4.5c0.5,1.8,0.5,3.5,0,5.1c-0.5,1.6-1.3,3-2.6,4.1
		c-1.2,1.1-2.7,1.9-4.5,2.4c-1.8,0.5-3.5,0.5-5.2,0.1c-1.6-0.4-3.1-1.2-4.3-2.4c-1.2-1.2-2-2.7-2.5-4.5c-0.5-1.8-0.5-3.5,0-5.1
		c0.5-1.6,1.3-3,2.6-4.1c1.2-1.2,2.8-2,4.6-2.4C122.9,178.7,123.8,178.6,124.6,178.6L124.6,178.6z M124.5,183
		c-0.4,0-0.9,0.1-1.3,0.2c-0.9,0.2-1.7,0.7-2.3,1.3c-0.6,0.6-1.1,1.3-1.3,2.2c-0.2,0.9-0.2,1.8,0,2.8c0.3,1,0.7,1.8,1.3,2.5
		c0.6,0.6,1.4,1.1,2.2,1.3c0.9,0.2,1.7,0.2,2.7,0c0.9-0.2,1.7-0.6,2.3-1.2c0.6-0.6,1.1-1.3,1.3-2.2c0.2-0.9,0.2-1.8,0-2.8
		c-0.3-1-0.7-1.8-1.3-2.5c-0.6-0.6-1.3-1.1-2.2-1.3C125.3,183,124.9,183,124.5,183L124.5,183z M105.1,183.8l3.6,13.9l7.7-2l1,3.8
		l-12.2,3.2l-4.6-17.7L105.1,183.8z"/>
	<path id="path1403" class="st2" d="M104.6,124.9c-37.7,0-68.3,30.6-68.3,68.3s30.6,68.3,68.3,68.3s68.3-30.6,68.3-68.3
		c0-1,0-2-0.1-3.1l10.7-2.8c7.5-1.9,12-9.6,10.1-17.1c-1.9-7.5-9.5-12-17-10.1l-10.8,2.8C154.7,140.5,131.5,124.9,104.6,124.9
		L104.6,124.9z M104.6,131.3c23.9,0,44.7,13.5,55,33.4l-58.3,15.1c-7.5,1.9-12,9.6-10.1,17.1c1.9,7.5,9.5,12,17,10.1l58.3-15.1
		c0,0.5,0,0.9,0,1.4c0,34.2-27.7,61.9-61.9,61.9s-61.9-27.7-61.9-61.9S70.4,131.3,104.6,131.3L104.6,131.3z M179,164.5
		c0.9,0,1.7,0.1,2.5,0.3c1.7,0.4,3.1,1.2,4.3,2.4c1.2,1.2,2,2.7,2.5,4.5c0.5,1.8,0.5,3.5,0,5.1c-0.5,1.6-1.3,3-2.6,4.1
		c-1.2,1.1-2.7,1.9-4.5,2.4c-1.8,0.5-3.5,0.5-5.2,0.1c-1.6-0.4-3-1.2-4.3-2.4c-1.2-1.2-2-2.7-2.5-4.5c-0.5-1.8-0.5-3.5,0-5.1
		c0.5-1.6,1.3-3,2.6-4.1c1.2-1.2,2.8-2,4.6-2.4C177.3,164.6,178.1,164.5,179,164.5L179,164.5z M178.8,168.9c-0.4,0-0.9,0.1-1.3,0.2
		c-0.9,0.2-1.7,0.7-2.3,1.3c-0.6,0.6-1.1,1.3-1.3,2.2c-0.2,0.9-0.2,1.8,0,2.8c0.3,1,0.7,1.8,1.3,2.5c0.6,0.6,1.4,1.1,2.2,1.3
		c0.9,0.2,1.7,0.2,2.7,0c0.9-0.2,1.7-0.6,2.3-1.2c0.6-0.6,1.1-1.3,1.3-2.2c0.2-0.9,0.2-1.8,0-2.8c-0.3-1-0.7-1.8-1.3-2.5
		c-0.6-0.6-1.3-1.1-2.2-1.3C179.7,169,179.3,168.9,178.8,168.9L178.8,168.9z M162,169.3c1,0,1.9,0.2,2.7,0.6c1.5,0.7,2.4,2.1,2.9,4
		c0.3,1.3,0.3,2.5,0,3.6c-0.3,1.1-1,2-1.9,2.7l4.7,5.4l-4.6,1.2l-4.2-4.8l-2.5,0.7l1.4,5.5l-4.5,1.2l-4.6-17.7l7.9-2.1
		C160.4,169.4,161.2,169.3,162,169.3L162,169.3z M149.2,172.3l4.6,17.7l-4.5,1.2l-1.8-7.1l-6.9,1.8l1.8,7.1l-4.5,1.2l-4.6-17.7
		l4.5-1.2l1.8,6.8l6.9-1.8l-1.8-6.8L149.2,172.3z M160.9,173.4c-0.4,0-0.8,0.1-1.2,0.2l-2.7,0.7l1.2,4.6l2.7-0.7
		c0.9-0.2,1.5-0.6,1.9-1c0.4-0.5,0.5-1.1,0.3-2c-0.2-0.9-0.6-1.4-1.2-1.6C161.6,173.5,161.3,173.4,160.9,173.4L160.9,173.4z
		 M124.6,178.6c0.9,0,1.7,0.1,2.5,0.3c1.7,0.4,3.1,1.2,4.3,2.4s2,2.7,2.5,4.5c0.5,1.8,0.5,3.5,0,5.1c-0.5,1.6-1.3,3-2.6,4.1
		c-1.2,1.1-2.7,1.9-4.5,2.4c-1.8,0.5-3.5,0.5-5.2,0.1c-1.6-0.4-3-1.2-4.3-2.4c-1.2-1.2-2-2.7-2.5-4.5c-0.5-1.8-0.5-3.5,0-5.1
		c0.5-1.6,1.3-3,2.6-4.1c1.2-1.2,2.8-2,4.6-2.4C122.9,178.7,123.8,178.6,124.6,178.6L124.6,178.6z M124.5,183
		c-0.4,0-0.9,0.1-1.3,0.2c-0.9,0.2-1.7,0.7-2.3,1.3c-0.6,0.6-1.1,1.3-1.3,2.2c-0.2,0.9-0.2,1.8,0,2.8c0.3,1,0.7,1.8,1.3,2.5
		c0.6,0.6,1.4,1.1,2.2,1.3c0.9,0.2,1.7,0.2,2.7,0c0.9-0.2,1.7-0.6,2.3-1.2c0.6-0.6,1.1-1.3,1.3-2.2s0.2-1.8,0-2.8
		c-0.3-1-0.7-1.8-1.3-2.5c-0.6-0.6-1.3-1.1-2.2-1.3C125.3,183,124.9,183,124.5,183L124.5,183z M105.1,183.8l3.6,13.9l7.7-2l1,3.8
		l-12.2,3.2l-4.6-17.7L105.1,183.8z"/>
	<path id="path1365" class="st3" d="M179,164.5c-0.9,0-1.7,0.1-2.6,0.4c-1.8,0.5-3.3,1.3-4.6,2.4c-1.2,1.1-2.1,2.5-2.6,4.1
		c-0.5,1.6-0.5,3.3,0,5.1c0.5,1.8,1.3,3.3,2.5,4.5c1.2,1.2,2.6,1.9,4.3,2.4c1.7,0.4,3.4,0.4,5.2-0.1c1.8-0.5,3.3-1.3,4.5-2.4
		c1.2-1.2,2.1-2.5,2.6-4.1c0.5-1.6,0.5-3.3,0-5.1c-0.5-1.8-1.3-3.3-2.5-4.5c-1.2-1.2-2.6-2-4.3-2.4
		C180.7,164.6,179.8,164.5,179,164.5L179,164.5z M178.8,168.9c0.4,0,0.9,0.1,1.3,0.2c0.8,0.2,1.6,0.6,2.2,1.3
		c0.6,0.6,1.1,1.4,1.3,2.5c0.3,1,0.3,2,0,2.8c-0.2,0.9-0.7,1.6-1.3,2.2c-0.6,0.6-1.4,1-2.3,1.2c-0.9,0.2-1.8,0.2-2.7,0
		c-0.8-0.2-1.6-0.6-2.2-1.3c-0.6-0.6-1.1-1.5-1.3-2.5c-0.3-1-0.3-1.9,0-2.8c0.2-0.9,0.7-1.6,1.3-2.2c0.6-0.6,1.4-1,2.3-1.3
		C177.9,169,178.4,168.9,178.8,168.9L178.8,168.9z M162,169.3c-0.8,0-1.6,0.1-2.5,0.3l-7.9,2.1l4.6,17.7l4.5-1.2l-1.4-5.5l2.5-0.7
		l4.2,4.8l4.6-1.2l-4.7-5.4c0.9-0.7,1.6-1.6,1.9-2.7c0.3-1.1,0.3-2.3,0-3.6c-0.5-2-1.5-3.3-2.9-4C163.9,169.5,163,169.3,162,169.3
		L162,169.3z M149.2,172.3l-4.5,1.2l1.8,6.8l-6.9,1.8l-1.8-6.8l-4.5,1.2l4.6,17.7l4.5-1.2l-1.8-7.1l6.9-1.8l1.8,7.1l4.5-1.2
		L149.2,172.3z M160.9,173.4c0.4,0,0.7,0,1,0.2c0.6,0.2,1,0.7,1.2,1.6c0.2,0.8,0.1,1.5-0.3,2c-0.4,0.5-1,0.8-1.9,1l-2.7,0.7
		l-1.2-4.6l2.7-0.7C160.1,173.5,160.5,173.4,160.9,173.4L160.9,173.4z M124.6,178.6c-0.9,0-1.7,0.1-2.6,0.4
		c-1.8,0.5-3.3,1.3-4.6,2.4c-1.2,1.1-2.1,2.5-2.6,4.1c-0.5,1.6-0.5,3.3,0,5.1c0.5,1.8,1.3,3.3,2.5,4.5c1.2,1.2,2.6,1.9,4.3,2.4
		c1.7,0.4,3.4,0.4,5.2-0.1c1.8-0.5,3.3-1.3,4.5-2.4c1.2-1.2,2.1-2.5,2.6-4.1c0.5-1.6,0.5-3.3,0-5.1c-0.5-1.8-1.3-3.3-2.5-4.5
		c-1.2-1.2-2.6-2-4.3-2.4C126.3,178.7,125.5,178.6,124.6,178.6L124.6,178.6z M124.5,183c0.4,0,0.9,0.1,1.3,0.2
		c0.8,0.2,1.6,0.6,2.2,1.3c0.6,0.6,1.1,1.4,1.3,2.5c0.3,1,0.3,2,0,2.8c-0.2,0.9-0.7,1.6-1.3,2.2c-0.6,0.6-1.4,1-2.3,1.2
		c-0.9,0.2-1.8,0.2-2.7,0c-0.8-0.2-1.6-0.6-2.2-1.3c-0.6-0.6-1.1-1.5-1.3-2.5c-0.3-1-0.3-1.9,0-2.8c0.2-0.9,0.7-1.6,1.3-2.2
		c0.6-0.6,1.4-1,2.3-1.3C123.6,183.1,124,183,124.5,183L124.5,183z M105.1,183.8l-4.5,1.2l4.6,17.7l12.2-3.2l-1-3.8l-7.7,2
		L105.1,183.8z"/>
</g>
<g>
	<path class="st3" d="M174.6,46.6h15.5c2.9,0,5.3,0.7,7,2.2c1.7,1.5,2.6,3.5,2.6,6.3c0,1.3-0.3,2.5-0.9,3.6c-0.6,1.1-1.4,2-2.5,2.6
		c1.5,0.6,2.6,1.4,3.3,2.5c0.7,1.1,1.1,2.5,1.1,4.3c0,1.9-0.4,3.5-1.3,4.9c-0.9,1.4-2.1,2.4-3.5,3.2c-1.5,0.7-3.1,1.1-4.9,1.1h-16.2
		V46.6z M188.4,58.8c2.3,0,3.4-1.1,3.4-3.2c0-1.2-0.3-2-0.9-2.5c-0.6-0.5-1.5-0.7-2.7-0.7h-5.9v6.3H188.4z M188.9,71.5
		c1.3,0,2.3-0.2,2.9-0.7c0.6-0.5,1-1.4,1-2.6c0-1.3-0.3-2.2-1-2.7c-0.7-0.6-1.7-0.9-3.1-0.9h-6.3v7H188.9z"/>
	<path class="st3" d="M205.2,76c-1.6-1.3-2.4-3-2.4-5.3c0-2.4,0.8-4.2,2.3-5.4c1.6-1.3,3.8-1.9,6.7-1.9c1.1,0,2.3,0.1,3.4,0.4
		c1.1,0.2,2.1,0.6,2.9,1v-0.4c0-2.2-1.8-3.4-5.5-3.4c-2.6,0-4.9,0.5-7,1.5v-5.3c0.9-0.4,2.2-0.8,3.7-1.1c1.5-0.3,3.1-0.4,4.7-0.4
		c3.9,0,6.9,0.8,8.9,2.3c2,1.6,3,3.7,3,6.5v12.8h-7.2v-1.8c-0.8,0.8-1.8,1.4-3,1.8c-1.2,0.4-2.6,0.7-4.1,0.7
		C209,77.9,206.8,77.3,205.2,76z M216.4,72.6c0.8-0.4,1.4-0.8,1.8-1.4v-1.8c-1.3-0.8-2.7-1.3-4.3-1.3c-1,0-1.8,0.2-2.4,0.7
		c-0.6,0.4-0.8,1.1-0.8,1.9c0,0.8,0.3,1.4,0.8,1.8c0.5,0.4,1.3,0.7,2.3,0.7C214.8,73.2,215.6,73,216.4,72.6z"/>
	<path class="st3" d="M229.6,56.2h7.4v2.3c0.9-1,2-1.7,3.3-2.2c1.3-0.5,2.6-0.7,4-0.7c2.9,0,5.1,0.8,6.5,2.3
		c1.4,1.5,2.1,3.6,2.1,6.2v13.1h-7.7V65.1c0-2.4-1.1-3.5-3.2-3.5c-1,0-1.9,0.2-2.7,0.7c-0.8,0.5-1.5,1.1-2.1,2.1v12.9h-7.7V56.2z"/>
	<path class="st3" d="M261.2,76.5c-1.7-0.9-3-2.2-3.9-3.9c-0.9-1.7-1.4-3.6-1.4-5.8c0-2.2,0.5-4.1,1.4-5.8c0.9-1.7,2.2-3,3.9-4
		c1.7-0.9,3.6-1.4,5.8-1.4c1.5,0,2.8,0.2,4,0.6c1.2,0.4,2.3,1,3.2,1.8v-13h7.7v32.3h-7.4v-2.1c-2,1.8-4.4,2.8-7.4,2.8
		C264.9,77.9,262.9,77.4,261.2,76.5z M272.2,71c0.9-0.6,1.6-1.4,2-2.4v-3.7c-0.4-1-1.1-1.8-2-2.4c-0.9-0.6-2-0.9-3.2-0.9
		c-1.6,0-2.8,0.5-3.8,1.4c-1,0.9-1.4,2.2-1.4,3.8c0,1.6,0.5,2.9,1.4,3.8c1,0.9,2.2,1.4,3.8,1.4C270.2,71.9,271.3,71.6,272.2,71z"/>
	<path class="st3" d="M288.5,75c-2.3-1.9-3.5-4.7-3.5-8.2c0-3.5,1-6.2,3.1-8.2c2.1-2,5.1-3,9-3c2.5,0,4.7,0.5,6.5,1.4
		c1.8,0.9,3.2,2.2,4.1,3.9c0.9,1.6,1.4,3.5,1.4,5.6v2.8h-16.8c0.3,1.2,1,2,2.2,2.5c1.2,0.5,2.8,0.8,4.8,0.8c1.4,0,2.8-0.1,4.2-0.4
		c1.4-0.2,2.7-0.6,3.7-1v5.1c-1.1,0.4-2.4,0.8-4,1.1c-1.6,0.3-3.3,0.4-5,0.4C294.1,77.9,290.9,76.9,288.5,75z M301.8,64.5
		c-0.1-1.1-0.6-2-1.4-2.7c-0.8-0.6-1.9-1-3.4-1c-1.4,0-2.5,0.3-3.3,1c-0.8,0.7-1.3,1.5-1.4,2.6H301.8z"/>
	<path class="st3" d="M312.1,56.2h7.4v2.6c0.8-0.9,2-1.7,3.5-2.2c1.5-0.5,3.1-0.8,4.9-0.8v5.9c-1.9,0-3.6,0.3-5.1,0.8
		c-1.5,0.6-2.5,1.4-3,2.5v12.1h-7.7V56.2z"/>
	<path class="st3" d="M334.8,76.5c-2-0.9-3.5-2.3-4.5-3.9c-1.1-1.7-1.6-3.6-1.6-5.8c0-2.2,0.5-4.1,1.6-5.8c1.1-1.7,2.6-3,4.5-3.9
		c2-0.9,4.2-1.4,6.8-1.4c2.6,0,4.9,0.5,6.8,1.4c2,0.9,3.5,2.3,4.5,3.9c1.1,1.7,1.6,3.6,1.6,5.8c0,2.2-0.5,4.1-1.6,5.8
		c-1.1,1.7-2.6,3-4.5,3.9c-2,0.9-4.2,1.4-6.8,1.4C339,77.9,336.7,77.4,334.8,76.5z M345.3,70.5c0.9-0.9,1.4-2.2,1.4-3.8
		c0-1.6-0.5-2.9-1.4-3.8c-0.9-0.9-2.2-1.4-3.7-1.4c-1.5,0-2.8,0.5-3.7,1.4c-0.9,0.9-1.4,2.2-1.4,3.8c0,1.6,0.5,2.9,1.4,3.8
		c0.9,0.9,2.2,1.4,3.7,1.4C343.1,71.9,344.4,71.4,345.3,70.5z"/>
	<path class="st3" d="M357.6,44.9h7.7v32.3h-7.7V44.9z"/>
	<path class="st3" d="M371.9,75c-2.3-1.9-3.5-4.7-3.5-8.2c0-3.5,1-6.2,3.1-8.2c2.1-2,5.1-3,9-3c2.5,0,4.7,0.5,6.5,1.4
		c1.8,0.9,3.2,2.2,4.1,3.9c0.9,1.6,1.4,3.5,1.4,5.6v2.8h-16.8c0.3,1.2,1,2,2.2,2.5c1.2,0.5,2.8,0.8,4.8,0.8c1.4,0,2.8-0.1,4.2-0.4
		c1.4-0.2,2.7-0.6,3.7-1v5.1c-1.1,0.4-2.4,0.8-4,1.1c-1.6,0.3-3.3,0.4-5,0.4C377.5,77.9,374.3,76.9,371.9,75z M385.2,64.5
		c-0.1-1.1-0.6-2-1.4-2.7c-0.8-0.6-1.9-1-3.4-1c-1.4,0-2.5,0.3-3.3,1c-0.8,0.7-1.3,1.5-1.4,2.6H385.2z"/>
</g>
</svg>
